<?xml version="1.0" encoding="utf-8"?>
<!-- Generator: Adobe Illustrator 18.1.0, SVG Export Plug-In . SVG Version: 6.00 Build 0)  -->
<svg version="1.1" id="Layer_1" xmlns="http://www.w3.org/2000/svg" xmlns:xlink="http://www.w3.org/1999/xlink" x="0px" y="0px"
	 viewBox="51.9 0 162.7 153.1" enable-background="new 51.9 0 162.7 153.1" xml:space="preserve">
<g>
	<g>
		<path fill="#2d2d2d" d="M99.7,108.1c-12.4,0-23,10.5-23,23c0,11.5,10.5,22,23,22s23-10.5,23-23S113.1,108.1,99.7,108.1z
			 M99.7,141.6c-6.7,0-11.5-4.8-11.5-11.5c0-6.7,4.8-11.5,11.5-11.5c6.7,0,11.5,4.8,11.5,11.5C111.2,136.8,106.4,141.6,99.7,141.6z
			 M205,28.7c-9.6,0-124.4,0-124.4,0L71,0h-9.6l0,0h-3.8c-2.9,0-5.7,2.9-5.7,5.7s2.9,5.7,5.7,5.7h6.7l16.3,74.6c0,0,1.9,9.6,9.6,9.6
			s98.5,0,98.5,0s6.7,1,10.5-9.6c3.8-12.4,15.3-47.8,15.3-47.8S215.5,28.7,205,28.7z M185.8,86.1h-83.2l-12.4-9.6h95.7V86.1z
			 M192.5,67H90.2l-9.6-9.6h114.8L192.5,67z M202.1,47.8H90.2l-9.6-9.6H205L202.1,47.8z"/>
	</g>
</g>
<path fill="#2d2d2d" d="M174.7,108.1c-12.4,0-23,10.5-23,23c0,11.5,10.5,22,23,22c12.4,0,23-10.5,23-23S188.1,108.1,174.7,108.1z
	 M174.7,141.6c-6.7,0-11.5-4.8-11.5-11.5c0-6.7,4.8-11.5,11.5-11.5c6.7,0,11.5,4.8,11.5,11.5C186.2,136.8,181.4,141.6,174.7,141.6z"
	/>
</svg>
