<?xml version="1.0" encoding="utf-8"?>
<!-- Generator: Adobe Illustrator 18.1.0, SVG Export Plug-In . SVG Version: 6.00 Build 0)  -->
<svg version="1.1" id="Vehicles" xmlns="http://www.w3.org/2000/svg" xmlns:xlink="http://www.w3.org/1999/xlink" x="0px" y="0px"
	 viewBox="0 0 50.6 34.5" enable-background="new 0 0 50.6 34.5" xml:space="preserve">
<g>
	
		<line fill="none" stroke="#2D2D2D" stroke-width="1.5" stroke-linecap="round" stroke-linejoin="round" stroke-miterlimit="10" x1="46.4" y1="23.3" x2="49.9" y2="23.3"/>
	<path fill="none" stroke="#2D2D2D" stroke-width="1.5" stroke-linecap="round" stroke-linejoin="round" stroke-miterlimit="10" d="
		M44.6,28.5h1.8c1.9,0,3.5-1.6,3.5-3.5v-4.9c0-1.8-0.7-3.6-2.1-4.9l-5.5-5.5c-1.3-1.3-3.1-2-4.9-2h-5v20.8h3.5"/>
	<path fill="none" stroke="#2D2D2D" stroke-width="1.5" stroke-linecap="round" stroke-linejoin="round" stroke-miterlimit="10" d="
		M16.6,28.5h15.8V6c0-2.9-2.4-5.2-5.3-5.2h-21C3.2,0.8,0.9,3.1,0.9,6v17.4c0,2.9,2.4,5.2,5.3,5.2h1.8"/>
	<path fill="none" stroke="#2D2D2D" stroke-width="1.5" stroke-linecap="round" stroke-linejoin="round" stroke-miterlimit="10" d="
		M43.8,11.2h-6.1c-1,0-1.8,0.8-1.8,1.7v3.5c0,1,0.8,1.7,1.8,1.7h11.8"/>
	
		<ellipse fill="none" stroke="#2D2D2D" stroke-width="1.5" stroke-linecap="round" stroke-linejoin="round" stroke-miterlimit="10" cx="12.3" cy="29.4" rx="4.4" ry="4.3"/>
	
		<ellipse fill="none" stroke="#2D2D2D" stroke-width="1.5" stroke-linecap="round" stroke-linejoin="round" stroke-miterlimit="10" cx="12.3" cy="29.4" rx="0.9" ry="0.9"/>
	
		<ellipse fill="none" stroke="#2D2D2D" stroke-width="1.5" stroke-linecap="round" stroke-linejoin="round" stroke-miterlimit="10" cx="40.3" cy="29.4" rx="0.9" ry="0.9"/>
	
		<ellipse fill="none" stroke="#2D2D2D" stroke-width="1.5" stroke-linecap="round" stroke-linejoin="round" stroke-miterlimit="10" cx="40.3" cy="29.4" rx="4.4" ry="4.3"/>
	
		<line fill="none" stroke="#2D2D2D" stroke-width="1.5" stroke-linecap="round" stroke-linejoin="round" stroke-miterlimit="10" x1="0.9" y1="21.6" x2="32.4" y2="21.6"/>
	<path fill="none" stroke="#2D2D2D" stroke-width="1.5" stroke-linecap="round" stroke-linejoin="round" stroke-miterlimit="10" d="
		M6.1,21.6"/>
	<path fill="none" stroke="#2D2D2D" stroke-width="1.5" stroke-linecap="round" stroke-linejoin="round" stroke-miterlimit="10" d="
		M6.1,0.8"/>
	
		<line fill="#2222D6" stroke="#2D2D2D" stroke-width="1.5" stroke-linecap="round" stroke-linejoin="round" stroke-miterlimit="10" x1="11.4" y1="0.8" x2="11.4" y2="21.6"/>
	<path fill="none" stroke="#2D2D2D" stroke-width="1.5" stroke-linecap="round" stroke-linejoin="round" stroke-miterlimit="10" d="
		M16.6,21.6"/>
	<path fill="none" stroke="#2D2D2D" stroke-width="1.5" stroke-linecap="round" stroke-linejoin="round" stroke-miterlimit="10" d="
		M16.6,0.8"/>
	
		<line fill="#5555CE" stroke="#2D2D2D" stroke-width="1.5" stroke-linecap="round" stroke-linejoin="round" stroke-miterlimit="10" x1="21.9" y1="0.8" x2="21.9" y2="21.6"/>
	<path fill="none" stroke="#2D2D2D" stroke-width="1.5" stroke-linecap="round" stroke-linejoin="round" stroke-miterlimit="10" d="
		M27.1,21.6"/>
	<path fill="none" stroke="#2D2D2D" stroke-width="1.5" stroke-linecap="round" stroke-linejoin="round" stroke-miterlimit="10" d="
		M27.1,0.8"/>
</g>
</svg>
