<?xml version="1.0" encoding="utf-8"?>
<!-- Generator: Adobe Illustrator 18.1.0, SVG Export Plug-In . SVG Version: 6.00 Build 0)  -->
<svg version="1.1" id="Layer_1" xmlns="http://www.w3.org/2000/svg" xmlns:xlink="http://www.w3.org/1999/xlink" x="0px" y="0px"
	 viewBox="0 0 20 17" enable-background="new 0 0 20 17" xml:space="preserve">
<g>
	<g>
		<path fill-rule="evenodd" clip-rule="evenodd" fill="#2D2D2D" d="M8,0v4h12V0H8z M8,10h12V6H8V10z M8,16h12v-4H8V16z M2,3L1,2L0,3
			l2.1,2L6,1L5,0L2,3z M2,9L1,8L0,9l2.1,2L6,7L5,6L2,9z M2,15l-1-1l-1,1l2.1,2L6,13l-1-1L2,15z"/>
	</g>
</g>
</svg>
