<?xml version="1.0" encoding="utf-8"?>
<!-- Generator: Adobe Illustrator 18.1.0, SVG Export Plug-In . SVG Version: 6.00 Build 0)  -->
<svg version="1.1" id="Layer_1" xmlns="http://www.w3.org/2000/svg" xmlns:xlink="http://www.w3.org/1999/xlink" x="0px" y="0px"
	 viewBox="0 0 12 12" enable-background="new 0 0 12 12" xml:space="preserve">
<g>
	<g>
		<path fill-rule="evenodd" clip-rule="evenodd" fill="#EDB94F" d="M11,5H7V1c0-0.6-0.4-1-1-1C5.4,0,5,0.5,5,1v4H1C0.4,5,0,5.5,0,6
			c0,0.6,0.4,1,1,1h4v4c0,0.6,0.4,1,1,1c0.6,0,1-0.4,1-1V7h4c0.6,0,1-0.4,1-1C12,5.5,11.6,5,11,5z"/>
	</g>
</g>
</svg>
