<?xml version="1.0" encoding="utf-8"?>
<!-- Generator: Adobe Illustrator 18.1.0, SVG Export Plug-In . SVG Version: 6.00 Build 0)  -->
<svg version="1.1" id="Vehicles" xmlns="http://www.w3.org/2000/svg" xmlns:xlink="http://www.w3.org/1999/xlink" x="0px" y="0px"
	 viewBox="0 0 60.1 36.4" enable-background="new 0 0 60.1 36.4" xml:space="preserve">
<g>
	
		<line fill="none" stroke="#2D2D2D" stroke-width="2" stroke-linecap="round" stroke-linejoin="round" stroke-miterlimit="10" x1="55.1" y1="23.2" x2="59.1" y2="23.2"/>
	<path fill="none" stroke="#2D2D2D" stroke-width="2" stroke-linecap="round" stroke-linejoin="round" stroke-miterlimit="10" d="
		M53.1,29.2h2c2.2,0,4-1.8,4-4v-4.5c0-1.6-0.6-3.1-1.8-4.2l-6.8-6.8c-1.6-1.6-3.7-2.4-5.9-2.4h-5.6v22h4"/>
	<path fill="none" stroke="#2D2D2D" stroke-width="2" stroke-linecap="round" stroke-linejoin="round" stroke-miterlimit="10" d="
		M29.1,29.2h10v-22c0-3.3-2.7-6-6-6h-16c-3.3,0-6,2.7-6,6v16c0,3.3,2.7,6,6,6h2"/>
	<path fill="none" stroke="#2D2D2D" stroke-width="2" stroke-linecap="round" stroke-linejoin="round" stroke-miterlimit="10" d="
		M52.1,11.2h-7c-1.1,0-2,0.9-2,2v2c0,1.1,0.9,2,2,2h12.8"/>
	
		<circle fill="none" stroke="#2D2D2D" stroke-width="2" stroke-linecap="round" stroke-linejoin="round" stroke-miterlimit="10" cx="24.1" cy="30.2" r="5"/>
	
		<circle fill="none" stroke="#2D2D2D" stroke-width="2" stroke-linecap="round" stroke-linejoin="round" stroke-miterlimit="10" cx="24.1" cy="30.2" r="1"/>
	
		<circle fill="none" stroke="#2D2D2D" stroke-width="2" stroke-linecap="round" stroke-linejoin="round" stroke-miterlimit="10" cx="48.1" cy="30.2" r="1"/>
	
		<circle fill="none" stroke="#2D2D2D" stroke-width="2" stroke-linecap="round" stroke-linejoin="round" stroke-miterlimit="10" cx="48.1" cy="30.2" r="5"/>
	
		<line fill="none" stroke="#2D2D2D" stroke-width="2" stroke-linecap="round" stroke-linejoin="round" stroke-miterlimit="10" x1="7.1" y1="21.2" x2="8.1" y2="21.2"/>
	
		<line fill="none" stroke="#2D2D2D" stroke-width="2" stroke-linecap="round" stroke-linejoin="round" stroke-miterlimit="10" x1="5.1" y1="17.2" x2="8.1" y2="17.2"/>
	
		<line fill="none" stroke="#2D2D2D" stroke-width="2" stroke-linecap="round" stroke-linejoin="round" stroke-miterlimit="10" x1="1.1" y1="9.2" x2="8.1" y2="9.2"/>
	
		<line fill="none" stroke="#2D2D2D" stroke-width="2" stroke-linecap="round" stroke-linejoin="round" stroke-miterlimit="10" x1="3.1" y1="13.2" x2="8.1" y2="13.2"/>
</g>
</svg>
