<?xml version="1.0" encoding="utf-8"?>
<!-- Generator: Adobe Illustrator 18.1.0, SVG Export Plug-In . SVG Version: 6.00 Build 0)  -->
<svg version="1.1" id="Layer_1" xmlns="http://www.w3.org/2000/svg" xmlns:xlink="http://www.w3.org/1999/xlink" x="0px" y="0px"
	 viewBox="0 0 36 44" enable-background="new 0 0 36 44" xml:space="preserve">
<g>
	<g>
		<path fill="#565555" d="M35.1,11.1L24.5,0.8C23.9,0.3,23.2,0,22.4,0H3C1.3,0,0,1.3,0,3v38c0,1.7,1.3,3,3,3h30c1.7,0,3-1.3,3-3
			V13.3C36,12.5,35.7,11.7,35.1,11.1z M25,4.1l6.1,5.9H25V4.1z M34,41c0,0.6-0.4,1-1,1H3c-0.6,0-1-0.4-1-1V3c0-0.6,0.4-1,1-1h19.4
			c0.3,0,0.5,0.1,0.7,0.3l0.5,0.5V11c0,0.6,0.4,1,1,1h8.5l0.6,0.6c0.2,0.2,0.3,0.4,0.3,0.7V41z M9.6,21H6.8v6.8h2.8
			c2.4,0,3.4-1.7,3.4-3.5C13,22.6,12,21,9.6,21z M9.6,26.4H8.4v-4h1.3c1.4,0,1.9,1,1.9,2C11.5,25.3,11.1,26.4,9.6,26.4z M18,20.8
			c-2.2,0-3.7,1.4-3.7,3.6c0,2.2,1.5,3.6,3.7,3.6c2.2,0,3.7-1.4,3.7-3.6C21.7,22.2,20.2,20.8,18,20.8z M18,26.6
			c-1.3,0-2.2-0.9-2.2-2.2c0-1.2,0.9-2.2,2.2-2.2c1.3,0,2.2,1,2.2,2.2C20.2,25.7,19.3,26.6,18,26.6z M26.5,26.6
			c-1.6,0-2.1-1.1-2.1-2.1c0-1,0.6-2.2,2.1-2.2c0.5,0,1.1,0.2,1.5,0.6l1-0.9c-0.7-0.7-1.6-1.1-2.5-1.1c-2.5,0-3.7,1.9-3.6,3.6
			c0,1.9,1,3.5,3.6,3.5c1,0,1.9-0.3,2.6-1l-0.9-1.1C27.8,26.4,27.1,26.6,26.5,26.6z"/>
	</g>
</g>
</svg>
