<?xml version="1.0" encoding="utf-8"?>
<!-- Generator: Adobe Illustrator 18.1.0, SVG Export Plug-In . SVG Version: 6.00 Build 0)  -->
<svg version="1.1" id="Layer_1" xmlns="http://www.w3.org/2000/svg" xmlns:xlink="http://www.w3.org/1999/xlink" x="0px" y="0px"
	 viewBox="0 0 30 30" enable-background="new 0 0 30 30" xml:space="preserve">
<g>
	<g>
		<path fill-rule="evenodd" clip-rule="evenodd" fill="#cccccc" d="M15,0C6.7,0,0,6.7,0,15s6.7,15,15,15s15-6.7,15-15S23.3,0,15,0z
			 M15,28C7.8,28,2,22.2,2,15C2,7.8,7.8,2,15,2c7.2,0,13,5.8,13,13C28,22.2,22.2,28,15,28z M14.1,8.8c-0.5,0.6-0.6,1.7-0.6,1.7v2.3
			H12v2.5h1.5V23h3.2v-7.6h2.1l0.2-2.5h-2.3V11c0,0,0.1-0.3,0.2-0.4c0.2-0.2,0.4-0.2,0.4-0.2H19V8h-3.4C15.6,8,14.7,8.2,14.1,8.8z"
			/>
	</g>
</g>
</svg>
