<?xml version="1.0" encoding="utf-8"?>
<!-- Generator: Adobe Illustrator 18.1.0, SVG Export Plug-In . SVG Version: 6.00 Build 0)  -->
<svg version="1.1" id="Layer_1" xmlns="http://www.w3.org/2000/svg" xmlns:xlink="http://www.w3.org/1999/xlink" x="0px" y="0px"
	 viewBox="0 0 266.5 153.1" enable-background="new 0 0 266.5 153.1" xml:space="preserve">
<g>
	<g>
		<path fill="#ffffff" d="M216.9,31.9c0.9-2,1.5-4.4,1.5-5.4c0-14.3-38.8-25.5-85.7-25.5C85.8,0,47,11.2,47,25.5l0,0l0,0l0,0
			c0,2,1,4.1,2,6.1c3.1,7.1,10.2,19.4,27.6,35.7c22.5,22.5,35.5,39.8,37.6,43.9c-1,2-0.8,5.1-0.8,7.1v14.3
			c0,11.2,9.2,20.4,20.4,20.4s20.4-9.2,20.4-20.4v-15.3c0-2,0-4.1-1-6.1c3.1-4.1,15.3-22.5,37.8-44.9
			C209.3,49,213.2,40.6,216.9,31.9z M58.2,25.5c0-11.2,33.7-20.4,75.5-20.4s75.5,9.2,75.5,20.4s-33.7,20.4-75.5,20.4
			S58.2,36.7,58.2,25.5z"/>
	</g>
</g>
</svg>
