<?xml version="1.0" encoding="utf-8"?>
<!-- Generator: Adobe Illustrator 18.1.0, SVG Export Plug-In . SVG Version: 6.00 Build 0)  -->
<svg version="1.1" id="Symbols__x26__Arrows" xmlns="http://www.w3.org/2000/svg" xmlns:xlink="http://www.w3.org/1999/xlink"
	 x="0px" y="0px" viewBox="0 0 52.3 52.5" enable-background="new 0 0 52.3 52.5" xml:space="preserve">
<g>
	
		<line fill="#2D2D2D" stroke="#2D2D2D" stroke-width="1.8" stroke-linecap="round" stroke-linejoin="round" stroke-miterlimit="10" x1="23.9" y1="1.5" x2="24.2" y2="5.2"/>
	
		<line fill="#2D2D2D" stroke="#2D2D2D" stroke-width="1.8" stroke-linecap="round" stroke-linejoin="round" stroke-miterlimit="10" x1="28.4" y1="47.8" x2="28.8" y2="51.5"/>
	
		<line fill="#2D2D2D" stroke="#2D2D2D" stroke-width="1.8" stroke-linecap="round" stroke-linejoin="round" stroke-miterlimit="10" x1="1.3" y1="29" x2="5" y2="28.6"/>
	
		<line fill="#2D2D2D" stroke="#2D2D2D" stroke-width="1.8" stroke-linecap="round" stroke-linejoin="round" stroke-miterlimit="10" x1="47.6" y1="24.4" x2="51.3" y2="24.1"/>
	
		<line fill="#2D2D2D" stroke="#2D2D2D" stroke-width="1.8" stroke-linecap="round" stroke-linejoin="round" stroke-miterlimit="10" x1="6.9" y1="10.6" x2="9.8" y2="13"/>
	
		<line fill="#2D2D2D" stroke="#2D2D2D" stroke-width="1.8" stroke-linecap="round" stroke-linejoin="round" stroke-miterlimit="10" x1="42.9" y1="40.1" x2="45.8" y2="42.5"/>
	
		<line fill="#2D2D2D" stroke="#2D2D2D" stroke-width="1.8" stroke-linecap="round" stroke-linejoin="round" stroke-miterlimit="10" x1="10.4" y1="46" x2="12.8" y2="43.1"/>
	
		<line fill="#2D2D2D" stroke="#2D2D2D" stroke-width="1.8" stroke-linecap="round" stroke-linejoin="round" stroke-miterlimit="10" x1="39.9" y1="10" x2="42.3" y2="7.1"/>
	
		<line fill="#2D2D2D" stroke="#2D2D2D" stroke-width="1.8" stroke-linecap="round" stroke-linejoin="round" stroke-miterlimit="10" x1="14.5" y1="4.4" x2="16.2" y2="7.7"/>
	
		<line fill="#2D2D2D" stroke="#2D2D2D" stroke-width="1.8" stroke-linecap="round" stroke-linejoin="round" stroke-miterlimit="10" x1="36.4" y1="45.4" x2="38.2" y2="48.7"/>
	
		<line fill="#2D2D2D" stroke="#2D2D2D" stroke-width="1.8" stroke-linecap="round" stroke-linejoin="round" stroke-miterlimit="10" x1="4.2" y1="38.4" x2="7.5" y2="36.6"/>
	
		<line fill="#2D2D2D" stroke="#2D2D2D" stroke-width="1.8" stroke-linecap="round" stroke-linejoin="round" stroke-miterlimit="10" x1="45.2" y1="16.4" x2="48.5" y2="14.7"/>
	
		<line fill="#2D2D2D" stroke="#2D2D2D" stroke-width="1.8" stroke-linecap="round" stroke-linejoin="round" stroke-miterlimit="10" x1="2.3" y1="19.2" x2="5.9" y2="20.3"/>
	
		<line fill="#2D2D2D" stroke="#2D2D2D" stroke-width="1.8" stroke-linecap="round" stroke-linejoin="round" stroke-miterlimit="10" x1="46.8" y1="32.7" x2="50.4" y2="33.8"/>
	
		<line fill="#2D2D2D" stroke="#2D2D2D" stroke-width="1.8" stroke-linecap="round" stroke-linejoin="round" stroke-miterlimit="10" x1="19" y1="50.6" x2="20.1" y2="47"/>
	
		<line fill="#2D2D2D" stroke="#2D2D2D" stroke-width="1.8" stroke-linecap="round" stroke-linejoin="round" stroke-miterlimit="10" x1="32.5" y1="6.1" x2="33.6" y2="2.5"/>
	
		<line fill="#2D2D2D" stroke="#2D2D2D" stroke-width="1.8" stroke-linecap="round" stroke-linejoin="round" stroke-miterlimit="10" x1="28.8" y1="1.5" x2="28.4" y2="5.2"/>
	
		<line fill="#2D2D2D" stroke="#2D2D2D" stroke-width="1.8" stroke-linecap="round" stroke-linejoin="round" stroke-miterlimit="10" x1="24.2" y1="47.8" x2="23.9" y2="51.5"/>
	
		<line fill="#2D2D2D" stroke="#2D2D2D" stroke-width="1.8" stroke-linecap="round" stroke-linejoin="round" stroke-miterlimit="10" x1="1.3" y1="24.1" x2="5" y2="24.4"/>
	
		<line fill="#2D2D2D" stroke="#2D2D2D" stroke-width="1.8" stroke-linecap="round" stroke-linejoin="round" stroke-miterlimit="10" x1="47.6" y1="28.6" x2="51.3" y2="29"/>
	
		<line fill="#2D2D2D" stroke="#2D2D2D" stroke-width="1.8" stroke-linecap="round" stroke-linejoin="round" stroke-miterlimit="10" x1="10.4" y1="7.1" x2="12.8" y2="10"/>
	
		<line fill="#2D2D2D" stroke="#2D2D2D" stroke-width="1.8" stroke-linecap="round" stroke-linejoin="round" stroke-miterlimit="10" x1="39.9" y1="43.1" x2="42.3" y2="46"/>
	
		<line fill="#2D2D2D" stroke="#2D2D2D" stroke-width="1.8" stroke-linecap="round" stroke-linejoin="round" stroke-miterlimit="10" x1="6.9" y1="42.5" x2="9.8" y2="40.1"/>
	
		<line fill="#2D2D2D" stroke="#2D2D2D" stroke-width="1.8" stroke-linecap="round" stroke-linejoin="round" stroke-miterlimit="10" x1="42.9" y1="13" x2="45.8" y2="10.6"/>
	
		<line fill="#2D2D2D" stroke="#2D2D2D" stroke-width="1.8" stroke-linecap="round" stroke-linejoin="round" stroke-miterlimit="10" x1="19" y1="2.5" x2="20.1" y2="6.1"/>
	
		<line fill="#2D2D2D" stroke="#2D2D2D" stroke-width="1.8" stroke-linecap="round" stroke-linejoin="round" stroke-miterlimit="10" x1="32.5" y1="47" x2="33.6" y2="50.6"/>
	
		<line fill="#2D2D2D" stroke="#2D2D2D" stroke-width="1.8" stroke-linecap="round" stroke-linejoin="round" stroke-miterlimit="10" x1="2.3" y1="33.8" x2="5.9" y2="32.7"/>
	
		<line fill="#2D2D2D" stroke="#2D2D2D" stroke-width="1.8" stroke-linecap="round" stroke-linejoin="round" stroke-miterlimit="10" x1="46.8" y1="20.3" x2="50.4" y2="19.2"/>
	
		<line fill="#2D2D2D" stroke="#2D2D2D" stroke-width="1.8" stroke-linecap="round" stroke-linejoin="round" stroke-miterlimit="10" x1="4.2" y1="14.7" x2="7.5" y2="16.4"/>
	
		<line fill="#2D2D2D" stroke="#2D2D2D" stroke-width="1.8" stroke-linecap="round" stroke-linejoin="round" stroke-miterlimit="10" x1="45.2" y1="36.6" x2="48.5" y2="38.4"/>
	
		<line fill="#2D2D2D" stroke="#2D2D2D" stroke-width="1.8" stroke-linecap="round" stroke-linejoin="round" stroke-miterlimit="10" x1="14.5" y1="48.7" x2="16.2" y2="45.4"/>
	
		<line fill="#2D2D2D" stroke="#2D2D2D" stroke-width="1.8" stroke-linecap="round" stroke-linejoin="round" stroke-miterlimit="10" x1="36.4" y1="7.7" x2="38.2" y2="4.4"/>
</g>
<g>
	<g>
		<path fill="#2D2D2D" d="M25.1,21h-2.8l0.6-0.4c1.2-0.9,1.9-1.7,1.9-2.7c0-0.7-0.2-1.2-0.7-1.6c-0.5-0.4-1.1-0.6-1.8-0.6
			s-1.4,0.2-1.8,0.7c-0.5,0.5-0.7,1-0.7,1.6c0,0.2,0,0.5,0.1,0.7h1.2c0-0.2-0.1-0.4-0.1-0.6c0-0.7,0.5-1.2,1.3-1.2
			c0.4,0,0.7,0.1,0.9,0.4c0.4,0.5,0.4,1.1,0.2,1.6c-0.1,0.3-0.6,0.7-1.5,1.3l-2.4,1.8v0.3h5.6V21z M31.4,23.5v-1.5h1.1V21h-1.1v-2.4
			h-1.3V21h-2.4l2.2-5.3h-1.3l-2.5,6.1v0.3h4v1.5H31.4z M19,31.2L16.2,28h-0.4v6h1.3v-3.4l1.7,2h0.4l1.7-2v3.4h1.3v-6h-0.4L19,31.2z
			 M26.8,28c-0.8,0-1.5,0.3-2.1,0.9c-0.6,0.6-0.9,1.3-0.9,2.2c0,0.9,0.3,1.6,0.9,2.2c0.6,0.6,1.4,0.9,2.3,0.9c0.9,0,1.7-0.3,2.4-0.9
			l-0.6-0.9c-0.5,0.5-1.1,0.7-1.6,0.7c-0.6,0-1-0.1-1.4-0.4c-0.3-0.3-0.6-0.6-0.6-1.1h4.4c0.1-0.3,0.1-0.5,0.1-0.8
			c0-0.8-0.3-1.4-0.8-1.9C28.3,28.3,27.7,28,26.8,28z M25.2,30.6c0.2-0.9,0.9-1.4,1.7-1.4c0.9,0,1.5,0.6,1.5,1.4H25.2z M33.9,29.2
			c0.6,0,1.2,0.3,1.6,0.9l0.9-0.7C35.9,28.6,35,28,33.9,28c-0.9,0-1.6,0.3-2.2,0.9c-0.6,0.6-0.9,1.3-0.9,2.2c0,0.9,0.3,1.6,0.9,2.2
			c0.6,0.6,1.3,0.9,2.2,0.9c1.1,0,1.9-0.5,2.5-1.4l-0.9-0.7C35.1,32.7,34.6,33,34,33c-0.6,0-1-0.2-1.4-0.5c-0.3-0.4-0.5-0.8-0.5-1.4
			c0-0.5,0.2-1,0.5-1.4C33,29.4,33.4,29.2,33.9,29.2z M39.3,32.6c-0.3-0.3-0.9-0.3-1.3,0c-0.4,0.4-0.4,1,0,1.3c0.4,0.3,1,0.3,1.3,0
			C39.7,33.6,39.7,33,39.3,32.6z"/>
	</g>
</g>
</svg>
