<?xml version="1.0" encoding="utf-8"?>
<!-- Generator: Adobe Illustrator 18.1.0, SVG Export Plug-In . SVG Version: 6.00 Build 0)  -->
<svg version="1.1" id="Layer_1" xmlns="http://www.w3.org/2000/svg" xmlns:xlink="http://www.w3.org/1999/xlink" x="0px" y="0px"
	 viewBox="0 47.9 266.5 56.9" enable-background="new 0 47.9 266.5 56.9" xml:space="preserve">
<path fill="#575757" d="M142.3,95.1v9.7h1.5v-4.1h3.8v-1.4h-3.8v-2.9h4.7V95h-6.2V95.1z"/>
<path fill="#575757" d="M159.3,95.1v5.9c0,1.7-1,2.5-2.4,2.5c-1.4,0-2.4-0.9-2.4-2.5v-5.9H153v5.9c0,1.3,0.4,2.3,1.1,3.1
	c0.8,0.8,1.7,1.1,2.9,1.1c1.1,0,2.2-0.4,2.9-1.1c0.8-0.8,1.1-1.8,1.1-3.1v-5.9H159.3z"/>
<path fill="#575757" d="M172.3,104.9h1.8l-2.9-4.1c1.1-0.5,1.9-1.4,1.9-2.8c0-0.9-0.3-1.7-0.9-2.2c-0.6-0.5-1.4-0.8-2.4-0.8h-3.6
	v9.7h1.5V101h1.8L172.3,104.9z M169.6,96.5c1,0,1.8,0.6,1.8,1.7c0,0.9-0.6,1.7-1.8,1.7h-1.9v-3.3L169.6,96.5z"/>
<path fill="#575757" d="M184.8,101.6l-5.9-6.7h-0.5v9.9h1.5v-6.6l5.9,6.7h0.5V95h-1.5V101.6z"/>
<path fill="#575757" d="M191.8,95.1v9.7h1.5v-9.7H191.8z"/>
<path fill="#575757" d="M197.7,95.1v1.4h3.3v8.3h1.5v-8.3h3.3v-1.4H197.7z"/>
<path fill="#575757" d="M216.6,95.1v5.9c0,1.7-1,2.5-2.4,2.5c-1.4,0-2.4-0.9-2.4-2.5v-5.9h-1.5v5.9c0,1.3,0.4,2.3,1.1,3.1
	c0.8,0.8,1.7,1.1,2.9,1.1c1.1,0,2.2-0.4,2.9-1.1s1.1-1.8,1.1-3.1v-5.9H216.6z"/>
<path fill="#575757" d="M229.6,104.9h1.8l-2.9-4.1c1.1-0.5,1.9-1.4,1.9-2.8c0-0.9-0.3-1.7-0.9-2.2c-0.6-0.5-1.4-0.8-2.4-0.8h-3.6
	v9.7h1.5V101h1.8L229.6,104.9z M226.9,96.5c1,0,1.8,0.6,1.8,1.7c0,0.9-0.6,1.7-1.8,1.7H225l0-3.3L226.9,96.5z"/>
<path fill="#575757" d="M235.5,95.1v9.7h6.6v-1.4h-5v-3.1h3.7v-1.4h-3.7v-2.5h4.8V95h-6.5V95.1z"/>
<path fill="#F8CB72" d="M135.9,56.8l-7.5,5.9c-2.8-4.2-6.2-6.2-10.3-6.2c-0.8,0-1.5,0.1-2.3,0.3c-0.1-0.5-0.1-1-0.1-1.7
	c0-4.2,3.6-6.5,8.3-6.5c2.3,0,4.3,0.5,6.2,1.5C132.3,51.8,134.4,54,135.9,56.8z"/>
<path fill="#E94949" d="M106.6,57.4c0,7,4.7,11.3,12.6,15l6,2.8c5.7,2.7,8,4.2,8,8.4c0,3.7-3.1,6.5-7.8,7.1c0.1-0.5,0.3-0.9,0.3-1.4
	c0-1.5-0.4-2.7-1-3.4c-1.3-1.7-2.4-2.2-6-3.8l-5.9-2.7c-8.5-3.8-13.1-8.4-13.1-15.5c0-4.6,1.7-8.3,5-11.1c1-0.9,2.3-1.7,3.4-2.3
	C107.3,52.6,106.6,54.9,106.6,57.4z"/>
<path fill="#CEC9C3" d="M124.6,99.2c4.2,0,7.9-1,10.9-3.2c-0.9,1.8-2.2,3.3-3.7,4.6c-3.6,2.9-7.9,4.5-13,4.5
	c-10.1,0-17.4-4.7-21.6-12L104,88C108.2,95.1,115.2,99.2,124.6,99.2z"/>
<path fill="#565656" d="M0,48.5v7h11.8v30.7h7.6V55.5h12v-7H0z"/>
<path fill="#565656" d="M48.5,73l9.7,13.4h8.5L56.1,71.4c4.1-2,6.5-5.9,6.5-10.7c0-3.7-1.3-6.6-3.8-8.8c-2.4-2.2-5.7-3.3-9.7-3.3
	h-14v37.7h7.6V73H48.5z M49.2,55.4c3.4,0,5.6,2.2,5.6,5.5c0,3.2-2,5.3-5.6,5.3h-6.4V55.4H49.2z"/>
<path fill="#565656" d="M70.1,48.5v37.7h25.7v-7H77.7v-9.5h12.7v-6.5H77.7v-7.6h17.4v-7H70.1z"/>
<path fill="#565656" d="M141.6,48.5v37.7h7.6V73h6.4c3.9,0,7.1-1.1,9.7-3.3c2.5-2.3,3.8-5.2,3.8-8.9c0-3.7-1.3-6.6-3.8-8.8
	c-2.4-2.2-5.7-3.3-9.7-3.3h-14V48.5z M155.6,55.4c3.4,0,5.6,2.2,5.6,5.5c0,3.2-2,5.5-5.6,5.5h-6.4V55.4H155.6z"/>
<path fill="#565656" d="M200.7,86.2l-16.5-38.3h-2.5L165,86.2h8.1l2-5h15.1l2,5H200.7z M177.9,75l4.8-12.7l4.8,12.7H177.9z"/>
<path fill="#565656" d="M220.4,47.9c-5.6,0-10.2,1.9-14.1,5.6c-3.8,3.7-5.7,8.3-5.7,13.9s1.9,10.2,5.7,13.9
	c3.8,3.7,8.5,5.6,14.1,5.6c7.1,0,13.2-3.4,16.4-9.4l-5.7-4.1c-2.7,4.2-6.2,6.4-10.7,6.4c-3.4,0-6.4-1.1-8.7-3.4
	c-2.3-2.3-3.4-5.2-3.4-8.9s1.1-6.6,3.4-8.9c2.3-2.3,5.1-3.4,8.7-3.4c4.5,0,8,2.2,10.7,6.4l5.7-4.1C233.5,51.3,227.4,47.9,220.4,47.9
	z"/>
<path fill="#565656" d="M240.9,48.5v37.7h25.7v-7h-18.1v-9.5h12.7v-6.5h-12.7v-7.6H266v-7H240.9z"/>
</svg>
