<?xml version="1.0" encoding="utf-8"?>
<!-- Generator: Adobe Illustrator 18.1.0, SVG Export Plug-In . SVG Version: 6.00 Build 0)  -->
<svg version="1.1" id="Finance" xmlns="http://www.w3.org/2000/svg" xmlns:xlink="http://www.w3.org/1999/xlink" x="0px" y="0px"
	 viewBox="0 0 56 59.8" enable-background="new 0 0 56 59.8" xml:space="preserve">
<g>
	
		<circle fill="none" stroke="#2D2D2D" stroke-width="2" stroke-linecap="round" stroke-linejoin="round" stroke-miterlimit="10" cx="46.1" cy="38" r="1"/>
	<path fill="none" stroke="#2D2D2D" stroke-width="2" stroke-linecap="round" stroke-linejoin="round" stroke-miterlimit="10" d="
		M43.1,43c-1.1,0-2-0.9-2-2v-6c0-1.1,0.9-2,2-2h10V21c0-2.2-1.8-4-4-4h-44c-2.2,0-4-1.8-4-4v42c0,2.2,1.8,4,4,4h44c2.2,0,4-1.8,4-4
		V43H43.1z"/>
	<path fill="none" stroke="#2D2D2D" stroke-width="2" stroke-linecap="round" stroke-linejoin="round" stroke-miterlimit="10" d="
		M53.1,43h-10c-1.1,0-2-0.9-2-2v-6c0-1.1,0.9-2,2-2h10c1.1,0,2,0.9,2,2v6C55.1,42.1,54.2,43,53.1,43z"/>
	<g>
		<g>
			
				<line fill="none" stroke="#2D2D2D" stroke-width="2" stroke-linecap="round" stroke-linejoin="round" x1="49.1" y1="29" x2="49.1" y2="29"/>
			
				<line fill="none" stroke="#2D2D2D" stroke-width="2" stroke-linecap="round" stroke-linejoin="round" stroke-dasharray="0,4" x1="49.1" y1="25" x2="49.1" y2="23"/>
			
				<line fill="none" stroke="#2D2D2D" stroke-width="2" stroke-linecap="round" stroke-linejoin="round" x1="49.1" y1="21" x2="49.1" y2="21"/>
			
				<line fill="none" stroke="#2D2D2D" stroke-width="2" stroke-linecap="round" stroke-linejoin="round" stroke-dasharray="0,4" x1="45.1" y1="21" x2="7.1" y2="21"/>
			
				<line fill="none" stroke="#2D2D2D" stroke-width="2" stroke-linecap="round" stroke-linejoin="round" x1="5.1" y1="21" x2="5.1" y2="21"/>
		</g>
	</g>
	<g>
		<g>
			
				<line fill="none" stroke="#2D2D2D" stroke-width="2" stroke-linecap="round" stroke-linejoin="round" x1="49.1" y1="47" x2="49.1" y2="47"/>
			
				<line fill="none" stroke="#2D2D2D" stroke-width="2" stroke-linecap="round" stroke-linejoin="round" stroke-dasharray="0,4" x1="49.1" y1="51" x2="49.1" y2="53"/>
			
				<line fill="none" stroke="#2D2D2D" stroke-width="2" stroke-linecap="round" stroke-linejoin="round" x1="49.1" y1="55" x2="49.1" y2="55"/>
			
				<line fill="none" stroke="#2D2D2D" stroke-width="2" stroke-linecap="round" stroke-linejoin="round" stroke-dasharray="0,4" x1="45.1" y1="55" x2="7.1" y2="55"/>
			
				<line fill="none" stroke="#2D2D2D" stroke-width="2" stroke-linecap="round" stroke-linejoin="round" x1="5.1" y1="55" x2="5.1" y2="55"/>
		</g>
	</g>
	<g>
		<path fill="none" stroke="#2D2D2D" stroke-width="2" stroke-linecap="round" stroke-linejoin="round" stroke-miterlimit="10" d="
			M5.1,9c-2.2,0-4,1.8-4,4c0,2.2,1.8,4,4,4h2.1l14-8H5.1z"/>
		<path fill="none" stroke="#2D2D2D" stroke-width="2" stroke-linecap="round" stroke-linejoin="round" stroke-miterlimit="10" d="
			M45.1,9h-5.3l4.7,8h4.6v-4C49.1,10.8,47.3,9,45.1,9z"/>
	</g>
	<g>
		<path fill="none" stroke="#2D2D2D" stroke-width="2" stroke-linecap="round" stroke-linejoin="round" stroke-miterlimit="10" d="
			M39.9,17l-4.2-7.2c-1.9,1.1-4.3,0.4-5.4-1.4L15.2,17H39.9z"/>
	</g>
	<g>
		
			<polygon fill="none" stroke="#2D2D2D" stroke-width="2" stroke-linecap="round" stroke-linejoin="round" stroke-miterlimit="10" points="
			44.5,17 35.2,1 7.2,17 		"/>
	</g>
</g>
</svg>
