<?xml version="1.0" encoding="utf-8"?>
<!-- Generator: Adobe Illustrator 18.1.0, SVG Export Plug-In . SVG Version: 6.00 Build 0)  -->
<svg version="1.1" id="Layer_1" xmlns="http://www.w3.org/2000/svg" xmlns:xlink="http://www.w3.org/1999/xlink" x="0px" y="0px"
	 viewBox="0 0 40 40" enable-background="new 0 0 40 40" xml:space="preserve">
<path fill-rule="evenodd" clip-rule="evenodd" fill="#42F4CC" d="M20,0c11,0,20,9,20,20s-9,20-20,20S0,31,0,20S9,0,20,0z"/>
<path fill="#FFFFFF" d="M11,21.3l-5.4-5.7H5.1V25H7v-5.5l5.4,5.7h0.6v-9.4H11V21.3z"/>
<path fill="#FFFFFF" d="M15,15.8V25h6.4v-1.7h-4.5V21h3.2v-1.6h-3.2v-1.9h4.3v-1.7H15z"/>
<path fill="#FFFFFF" d="M32,21.2l-2.4-5.6h-0.6l-2.4,5.6l-2.1-5.4h-2.1l3.7,9.4h0.6l2.6-5.8l2.6,5.8h0.6l3.7-9.4h-2.1L32,21.2z"/>
</svg>
