<?xml version="1.0" encoding="utf-8"?>
<!-- Generator: Adobe Illustrator 18.1.0, SVG Export Plug-In . SVG Version: 6.00 Build 0)  -->
<svg version="1.1" id="Layer_1" xmlns="http://www.w3.org/2000/svg" xmlns:xlink="http://www.w3.org/1999/xlink" x="0px" y="0px"
	 viewBox="0 0 266.5 153.1" enable-background="new 0 0 266.5 153.1" xml:space="preserve">
<path fill="#f64c4c" d="M213.8,77.3c0,4-1.6,7.3-3.2,9.7c-1.6,2.4-4.8,4.8-10.5,4.8h-45.9c10.5,29,4.8,48.3-4.8,56.4
	c-4.8,4.8-10.5,5.6-14.5,4c-4-1.6-5.6-6.4-5.6-12.9c1.6-20.9-26.6-50.8-26.6-50.8l-1.6,0H52.7V8.1H101v5.6C134,4,171.1,0,180,0
	c1.6,0,1.6,0,2.4,0c10.5,0,15.3,6.4,15.3,12.9c0,2.4-0.8,4.8-2.4,7.3c6.4,1.6,10.5,8.1,10.5,13.7c0,3.2-0.8,5.6-2.4,8.1
	c6.4,2.4,9.7,8.1,9.7,13.7c0,4-1.6,7.3-4,10.5C212.2,68.5,213.8,72.5,213.8,77.3z M92.9,16.1H60.7v64.5h32.2V16.1z M199.3,70.1h-0.8
	h-12.9c-1.6,0-3.2-1.6-3.2-3.2c0-1.6,1.6-3.2,3.2-3.2h12.9c4.8,0,7.3-4,7.3-7.3s-1.6-8.1-7.3-8.1h-7.3h-9.7c-1.6,0-3.2-1.6-3.2-3.2
	s1.6-3.2,3.2-3.2h9.7c5.6,0,7.3-4,7.3-7.3c0-2.4-1.6-7.3-7.3-7.3h-8.1h-4.8c-1.6,0-3.2-1.6-3.2-3.2s1.6-3.2,3.2-3.2h4.8
	c4,0,7.3-3.2,7.3-6.4c0-0.8,1-1.9-1.3-4.2s-4.3-3.1-7.6-3.1c-0.8,0-45.1,3.2-80.6,15.3v58h8.1c0,0,29,33,26.6,59.6
	c0,2.4,0,4.8,1.6,5.6c1.6,0.8,4,0,7.3-2.4c7.3-7.3,12.1-25.8,0.8-54c-0.8-0.8,0-2.4,0-3.2c0.8-0.8,1.6-1.6,3.2-1.6h50.8
	c2.4,0,4-0.8,5.6-2.4c0.8-1.6,1.6-3.2,1.6-4.8C206.5,74.1,204.9,70.1,199.3,70.1z"/>
</svg>
