<?xml version="1.0" encoding="utf-8"?>
<!-- Generator: Adobe Illustrator 18.1.0, SVG Export Plug-In . SVG Version: 6.00 Build 0)  -->
<svg version="1.1" id="Finance" xmlns="http://www.w3.org/2000/svg" xmlns:xlink="http://www.w3.org/1999/xlink" x="0px" y="0px"
	 viewBox="0 0 47.1 46.9" enable-background="new 0 0 47.1 46.9" xml:space="preserve">
<g>
	
		<circle fill="none" stroke="#2D2D2D" stroke-width="1.8" stroke-linecap="round" stroke-linejoin="round" stroke-miterlimit="10" cx="27.2" cy="3.8" r="2.7"/>
	
		<circle fill="none" stroke="#2D2D2D" stroke-width="1.8" stroke-linecap="round" stroke-linejoin="round" stroke-miterlimit="10" cx="20" cy="3.8" r="2.7"/>
	<path fill="none" stroke="#2D2D2D" stroke-width="1.8" stroke-linecap="round" stroke-linejoin="round" stroke-miterlimit="10" d="
		M37.1,17.1v-3.4c0-1-0.8-1.8-1.8-1.8H11.9c-1,0-1.8,0.8-1.8,1.8v3.4c0,1.3-0.7,2.4-1.7,3.1l-3.8,2.3c-2.2,1.3-3.5,3.6-3.5,6.2v1.3
		c0,8.9,7.3,16.2,16.2,16.2h12.6c8.9,0,16.2-7.3,16.2-16.2v-1.3c0-2.5-1.3-4.9-3.5-6.2l-3.8-2.3C37.8,19.5,37.1,18.4,37.1,17.1z"/>
	<g>
		<g>
			
				<line fill="none" stroke="#2D2D2D" stroke-width="1.8" stroke-linecap="round" stroke-linejoin="round" x1="13.7" y1="17.3" x2="13.7" y2="17.3"/>
			
				<line fill="none" stroke="#2D2D2D" stroke-width="1.8" stroke-linecap="round" stroke-linejoin="round" stroke-dasharray="0,3.6667" x1="17" y1="17.3" x2="31.9" y2="17.3"/>
			
				<line fill="none" stroke="#2D2D2D" stroke-width="1.8" stroke-linecap="round" stroke-linejoin="round" x1="33.5" y1="17.3" x2="33.5" y2="17.3"/>
		</g>
	</g>
	<path fill="none" stroke="#2D2D2D" stroke-width="1.8" stroke-linecap="round" stroke-linejoin="round" stroke-miterlimit="10" d="
		M6.5,13.7c0-3,2.4-5.4,5.4-5.4h23.4c3,0,5.4,2.4,5.4,5.4"/>
</g>
</svg>
