<?xml version="1.0" encoding="utf-8"?>
<!-- Generator: Adobe Illustrator 18.1.0, SVG Export Plug-In . SVG Version: 6.00 Build 0)  -->
<svg version="1.1" id="Layer_1" xmlns="http://www.w3.org/2000/svg" xmlns:xlink="http://www.w3.org/1999/xlink" x="0px" y="0px"
	 viewBox="0 0 36 44" enable-background="new 0 0 36 44" xml:space="preserve">
<g>
	<g>
		<path fill="#565656" d="M35.1,11.1L24.5,0.8C23.9,0.3,23.2,0,22.4,0H3C1.3,0,0,1.3,0,3v38c0,1.7,1.3,3,3,3h30c1.7,0,3-1.3,3-3
			V13.3C36,12.5,35.7,11.7,35.1,11.1z M25,4.1l6.1,5.9H25V4.1z M34,41c0,0.6-0.4,1-1,1H3c-0.6,0-1-0.4-1-1V3c0-0.6,0.4-1,1-1h19.4
			c0.3,0,0.5,0.1,0.7,0.3l0.5,0.5V11c0,0.6,0.4,1,1,1h8.5l0.6,0.6c0.2,0.2,0.3,0.4,0.3,0.7V41z M10.4,20.4H7v7h1.6v-2h1.8
			c1.8,0,2.7-1.1,2.7-2.5C13.1,21.6,12.2,20.4,10.4,20.4z M10.4,24H8.6v-2.1h1.8c0.8,0,1.1,0.5,1.1,1.1S11.1,24,10.4,24z M17.5,20.4
			h-2.9v7h2.9c2.5,0,3.5-1.7,3.5-3.6C21.1,22.1,20,20.4,17.5,20.4z M17.5,26h-1.4v-4.2h1.4c1.5,0,2,1,2,2C19.5,24.9,19.1,26,17.5,26
			z M22.8,27.5h1.6v-2.5h3.4v-1.4h-3.4v-1.7H28v-1.4h-5.2V27.5z"/>
	</g>
</g>
</svg>
