<?xml version="1.0" encoding="utf-8"?>
<!-- Generator: Adobe Illustrator 18.1.0, SVG Export Plug-In . SVG Version: 6.00 Build 0)  -->
<svg version="1.1" id="Devices" xmlns="http://www.w3.org/2000/svg" xmlns:xlink="http://www.w3.org/1999/xlink" x="0px" y="0px"
	 viewBox="0 0 43.8 44" enable-background="new 0 0 43.8 44" xml:space="preserve">
<g>
	<path fill="none" stroke="#2D2D2D" stroke-width="1.6" stroke-linecap="round" stroke-linejoin="round" stroke-miterlimit="10" d="
		M35.3,41.9l3.4-3.5c1.4-1.4,1.2-3.6-0.3-4.8l-5.4-4.2c-1.2-0.9-2.8-0.9-4,0l-1.2,0.9c-1.3,1-3.1,0.9-4.3-0.3l-9.7-9.7
		c-1.2-1.2-1.3-3-0.3-4.3l0.9-1.2c0.9-1.2,0.9-2.8,0-4l-4.2-5.4C9.2,4,7,3.8,5.6,5.2L2.1,8.7C-0.2,11-0.2,17.7,13,31
		C26.3,44.2,33.1,44,35.3,41.9z"/>
	<path fill="none" stroke="#2D2D2D" stroke-width="1.6" stroke-linecap="round" stroke-linejoin="round" stroke-miterlimit="10" d="
		M42.9,21.2C42.9,10,33.9,1,22.7,1"/>
	<path fill="none" stroke="#2D2D2D" stroke-width="1.6" stroke-linecap="round" stroke-linejoin="round" stroke-miterlimit="10" d="
		M22.7,5.8c8.5,0,15.3,6.9,15.3,15.4"/>
	<path fill="none" stroke="#2D2D2D" stroke-width="1.6" stroke-linecap="round" stroke-linejoin="round" stroke-miterlimit="10" d="
		M22.7,10.7c5.8,0,10.5,4.7,10.5,10.5"/>
	<path fill="none" stroke="#2D2D2D" stroke-width="1.6" stroke-linecap="round" stroke-linejoin="round" stroke-miterlimit="10" d="
		M22.7,15.5c3.1,0,5.7,2.5,5.7,5.7"/>
</g>
</svg>
