<?xml version="1.0" encoding="utf-8"?>
<!-- Generator: Adobe Illustrator 18.1.0, SVG Export Plug-In . SVG Version: 6.00 Build 0)  -->
<svg version="1.1" id="Layer_1" xmlns="http://www.w3.org/2000/svg" xmlns:xlink="http://www.w3.org/1999/xlink" x="0px" y="0px"
	 viewBox="0 0 47 50" enable-background="new 0 0 47 50" xml:space="preserve">
<g opacity="0.3">
	<image overflow="visible" width="107" height="106" xlink:href="3E5A6935.png"  transform="matrix(1 0 0 1 -36 -20)">
	</image>
</g>
<g>
	<g>
		<path fill-rule="evenodd" clip-rule="evenodd" fill="#E94949" d="M45,18.1C45,8.1,37,0,27.1,0C17.2,0,9.2,8.1,9.2,18.1
			c0,5.8,2.7,11,6.9,14.3l0.1,0.1l19,17.5l-3.3-14.4C39.4,33.5,45,26.5,45,18.1z"/>
	</g>
</g>
<path fill-rule="evenodd" clip-rule="evenodd" fill="#FFFFFF" d="M27.1,2.5c8.5,0,15.5,7,15.5,15.6s-6.9,15.6-15.5,15.6
	s-15.5-7-15.5-15.6S18.5,2.5,27.1,2.5z"/>
<path fill-rule="evenodd" clip-rule="evenodd" fill="#F8CB72" d="M33,11.8l-2.5,2c-0.9-1.4-2.1-2.1-3.5-2.1c-0.3,0-0.5,0-0.8,0.1
	c0-0.2-0.1-0.3-0.1-0.5c0-1.4,1.2-2.2,2.8-2.2c0.8,0,1.5,0.2,2.1,0.5C31.8,10.1,32.5,10.8,33,11.8z"/>
<path fill-rule="evenodd" clip-rule="evenodd" fill="#E94949" d="M23.2,12c0,2.3,1.6,3.8,4.2,5l2,0.9c1.9,0.9,2.7,1.4,2.7,2.8
	c0,1.3-1,2.2-2.6,2.4c0.1-0.2,0.1-0.3,0.1-0.5c0-0.5-0.1-0.9-0.3-1.2c-0.4-0.6-0.8-0.7-2-1.3l-2-0.9c-2.8-1.3-4.4-2.8-4.4-5.2
	c0-1.5,0.6-2.8,1.7-3.7c0.4-0.3,0.8-0.6,1.2-0.8C23.4,10.3,23.2,11.1,23.2,12z"/>
<path fill-rule="evenodd" clip-rule="evenodd" fill="#CEC9C3" d="M29.2,26c1.4,0,2.6-0.3,3.7-1.1c-0.3,0.6-0.7,1.1-1.3,1.6
	c-1.2,1-2.6,1.5-4.4,1.5c-3.4,0-5.8-1.6-7.3-4l2.3-1.7C23.7,24.6,26.1,26,29.2,26z"/>
</svg>
