<?xml version="1.0" encoding="utf-8"?>
<!-- Generator: Adobe Illustrator 18.1.0, SVG Export Plug-In . SVG Version: 6.00 Build 0)  -->
<svg version="1.1" id="Layer_1" xmlns="http://www.w3.org/2000/svg" xmlns:xlink="http://www.w3.org/1999/xlink" x="0px" y="0px"
	 viewBox="0 0 266.5 153.1" enable-background="new 0 0 266.5 153.1" xml:space="preserve">
<g>
	<path fill="#565656" d="M133.2,149c-40.3,0-72.5-32.1-72.5-72.5S92.9,4.1,133.2,4.1s73,32.1,73,72.5S173.5,149,133.2,149z"/>
	<path fill="#FFFFFF" d="M133.2,7.7c37.8,0,68.9,31.1,68.9,68.9s-31.1,68.9-68.9,68.9s-68.9-31.1-68.9-68.9S95.5,7.7,133.2,7.7
		 M133.2,0C90.9,0,56.7,34.2,56.7,76.5s34.2,76.5,76.5,76.5s76.5-34.2,76.5-76.5S175.6,0,133.2,0L133.2,0z"/>
</g>
<g>
	<g>
		<polygon fill="#FFFFFF" points="154.1,74 123.5,43.4 118.4,48.5 146.5,76.5 118.4,104.6 123.5,109.7 154.1,79.1 156.9,76.5 		"/>
	</g>
</g>
</svg>
