<?xml version="1.0" encoding="utf-8"?>
<!-- Generator: Adobe Illustrator 18.1.0, SVG Export Plug-In . SVG Version: 6.00 Build 0)  -->
<svg version="1.1" id="Human" xmlns="http://www.w3.org/2000/svg" xmlns:xlink="http://www.w3.org/1999/xlink" x="0px" y="0px"
	 viewBox="0 0 40 40" enable-background="new 0 0 40 40" xml:space="preserve">
<circle fill="#A13BE9" cx="20" cy="20" r="20"/>
<g>
	
		<path fill-rule="evenodd" clip-rule="evenodd" fill="none" stroke="#FFFFFF" stroke-width="1.4" stroke-linecap="round" stroke-linejoin="round" stroke-miterlimit="10" d="
		M15.4,18.5c2.4-4.7,5.5-6,4.4-10.5c-0.1-0.4,0.5-1,1-0.9l0,0c1.3,0.1,2.1,1.8,2.4,2.7c0.6,1.6,0.1,5.7-0.6,6.4
		c1.2-0.1,4.2,0,7.3,0.2c0.9,0,1.7,0.6,1.7,1.8c0,1-0.8,1.7-1.6,1.7h-5 M29.3,23.5c0.4,0.7,0.4,1.2,0.4,1.7c-0.1,1.1-0.9,2-2,2h-3.6
		 M30.1,19.9c0.4,0.4,0.5,1.3,0.5,1.7c-0.1,1.1-0.9,1.9-1.9,1.9h-4"/>
	
		<line fill-rule="evenodd" clip-rule="evenodd" fill="none" stroke="#FFFFFF" stroke-width="1.4" stroke-linecap="round" stroke-linejoin="round" stroke-miterlimit="10" x1="14.1" y1="17.1" x2="16.1" y2="17.1"/>
	
		<path fill-rule="evenodd" clip-rule="evenodd" fill="none" stroke="#FFFFFF" stroke-width="1.4" stroke-linecap="round" stroke-linejoin="round" stroke-miterlimit="10" d="
		M27.7,27.2c0.1,0.3,0.2,0.6,0.1,1.1c-0.1,1.2-0.9,1.7-2.3,2c-1.6,0.3-3,0.5-6,0.5c-1.9,0-3-0.8-3.9-1.4c-0.4-0.3-0.7-0.8-0.7-1.4
		v-0.5"/>
	
		<line fill="none" stroke="#FFFFFF" stroke-width="1.4" stroke-linecap="round" stroke-linejoin="round" stroke-miterlimit="10" x1="22.8" y1="16.2" x2="21.4" y2="16.2"/>
	
		<path fill-rule="evenodd" clip-rule="evenodd" fill="none" stroke="#FFFFFF" stroke-width="1.4" stroke-linecap="round" stroke-linejoin="round" stroke-miterlimit="10" d="
		M14.3,17.1h-0.7c-1.8,0-3.2,1.4-3.2,3.2v6c0,1.8,1.4,3.2,3.2,3.2h2"/>
</g>
</svg>
