<?xml version="1.0" encoding="utf-8"?>
<!-- Generator: Adobe Illustrator 18.1.0, SVG Export Plug-In . SVG Version: 6.00 Build 0)  -->
<svg version="1.1" id="Layer_1" xmlns="http://www.w3.org/2000/svg" xmlns:xlink="http://www.w3.org/1999/xlink" x="0px" y="0px"
	 viewBox="0 0 40 40" enable-background="new 0 0 40 40" xml:space="preserve">
<path fill-rule="evenodd" clip-rule="evenodd" fill="#F64C4C" d="M20,0c11,0,20,9,20,20s-9,20-20,20S0,31,0,20S9,0,20,0z"/>
<path fill="#FFFFFF" d="M13.8,14.5c-0.7,0.6-1,1.4-1,2.3c0,0.9,0.3,1.7,1,2.3c0.7,0.6,1.5,0.9,2.4,0.9c0.9,0,1.7-0.3,2.4-0.9
	c0.7-0.6,1-1.4,1-2.3c0-0.9-0.3-1.7-1-2.3c-0.7-0.6-1.5-1-2.4-1C15.3,13.6,14.5,13.9,13.8,14.5z M23,13.8L15.4,27h2.2l7.6-13.2H23z
	 M17.2,15.8c0.5,0.5,0.5,1.5,0,2.1c-0.5,0.5-1.4,0.5-1.9,0c-0.5-0.5-0.5-1.5,0-2.1C15.8,15.3,16.7,15.3,17.2,15.8z M22,21.6
	c-0.7,0.6-1,1.4-1,2.3c0,0.9,0.3,1.7,1,2.3c0.7,0.6,1.5,0.9,2.4,0.9c0.9,0,1.8-0.3,2.4-0.9c0.7-0.6,1-1.4,1-2.3c0-0.9-0.3-1.7-1-2.3
	c-0.7-0.6-1.5-1-2.4-1C23.4,20.6,22.6,21,22,21.6z M25.3,22.9c0.5,0.5,0.5,1.5,0,2c-0.5,0.5-1.4,0.5-1.9,0c-0.2-0.3-0.4-0.6-0.4-1
	c0-0.4,0.1-0.8,0.4-1C23.9,22.4,24.8,22.4,25.3,22.9z"/>
</svg>
