<?xml version="1.0" encoding="utf-8"?>
<!-- Generator: Adobe Illustrator 18.1.0, SVG Export Plug-In . SVG Version: 6.00 Build 0)  -->
<svg version="1.1" id="Layer_1" xmlns="http://www.w3.org/2000/svg" xmlns:xlink="http://www.w3.org/1999/xlink" x="0px" y="0px"
	 viewBox="58.2 0 149.4 153.1" enable-background="new 58.2 0 149.4 153.1" xml:space="preserve">
<g>
	<g>
		<path fill="#565656" d="M204.3,136.2l-32.8-28.8c9.9-10.9,15.9-25.8,15.9-41.7c0-36.8-28.8-65.6-64.6-65.6S58.2,28.8,58.2,64.6
			s28.8,64.6,64.6,64.6c11.9,0,23.9-4,33.8-9.9l1,1l33.8,29.8c4,4,9.1,3.8,13.3-0.4C208.9,145.5,208.3,140.1,204.3,136.2z
			 M78.1,64.6c0-24.8,19.9-44.7,44.7-44.7s44.7,19.9,44.7,44.7s-19.9,44.7-44.7,44.7S78.1,89.5,78.1,64.6z"/>
	</g>
</g>
</svg>
