<?xml version="1.0" encoding="utf-8"?>
<!-- Generator: Adobe Illustrator 18.1.0, SVG Export Plug-In . SVG Version: 6.00 Build 0)  -->
<svg version="1.1" id="Layer_1" xmlns="http://www.w3.org/2000/svg" xmlns:xlink="http://www.w3.org/1999/xlink" x="0px" y="0px"
	 viewBox="0 0 266.5 153.1" enable-background="new 0 0 266.5 153.1" xml:space="preserve">
<g>
	<g>
		<path fill="#565656" d="M183.9,103.6c-5.9,0-11.8,2.4-16.5,5.9l-58.9-24.7c0-2.4,1.2-4.8,1.2-8.2c0-3.5-1.2-5.9-2.4-8.2l58.9-24.7
			c4.7,3.5,10.6,5.9,17.7,5.9c14.1,0,25.9-10.6,25.9-24.7S198,0,183.9,0C169.7,0,158,10.6,158,24.7c0,2.4,1.2,5.9,1.2,8.2
			l-58.9,24.7c-4.7-3.5-10.6-5.9-17.7-5.9c-14.1,0-25.9,10.6-25.9,24.7s11.8,24.7,25.9,24.7c7.1,0,13-2.4,17.7-5.9l58.9,24.7
			c-1.2,2.4-1.2,5.9-1.2,8.2c0,14.1,11.8,24.7,25.9,24.7s25.9-10.6,25.9-24.7C209.8,115.4,198,103.6,183.9,103.6z"/>
	</g>
</g>
</svg>
