<?xml version="1.0" encoding="utf-8"?>
<!-- Generator: Adobe Illustrator 18.1.0, SVG Export Plug-In . SVG Version: 6.00 Build 0)  -->
<svg version="1.1" id="Layer_1" xmlns="http://www.w3.org/2000/svg" xmlns:xlink="http://www.w3.org/1999/xlink" x="0px" y="0px"
	 viewBox="0 0 266.5 153.1" enable-background="new 0 0 266.5 153.1" xml:space="preserve">
<g>
	<path fill="#E94949" d="M133.2,6.1c38.9,0,70.4,31.5,70.4,70.4s-31.5,70.4-70.4,70.4s-70.4-31.5-70.4-70.4S94.4,6.1,133.2,6.1
		 M133.2,0C91,0,56.7,34.3,56.7,76.5s34.3,76.5,76.5,76.5s76.5-34.3,76.5-76.5S175.5,0,133.2,0L133.2,0z"/>
</g>
<g>
	<g>
		<path fill="#E74A4A" d="M110.6,81.4l22.7-22l23,22c0.9,0.9,2.8,0.6,3.7-0.3c1.2-0.9,1.5-2.4,0.6-3.4l-27.2-26l-26.9,26
			c-0.9,0.9-0.6,2.4,0.6,3.4C107.8,82,109.7,82.4,110.6,81.4z M137.2,74.7L137.2,74.7l-3.7-3.7l0,0l-0.3-0.3l-26.9,26
			c-0.9,0.9-0.6,2.4,0.6,3.4c1.2,0.9,2.8,1.2,3.7,0.3l22.7-21.7l22.7,22c0.9,0.9,2.8,0.6,3.7-0.3c1.2-0.9,1.5-2.4,0.6-3.4
			L137.2,74.7z"/>
	</g>
</g>
</svg>
