<?xml version="1.0" encoding="utf-8"?>
<!-- Generator: Adobe Illustrator 18.1.0, SVG Export Plug-In . SVG Version: 6.00 Build 0)  -->
<svg version="1.1" id="Layer_1" xmlns="http://www.w3.org/2000/svg" xmlns:xlink="http://www.w3.org/1999/xlink" x="0px" y="0px"
	 viewBox="0 0 30 30" enable-background="new 0 0 30 30" xml:space="preserve">
<g>
	<g>
		<path fill-rule="evenodd" clip-rule="evenodd" fill="#cccccc" d="M15,0C6.7,0,0,6.7,0,15s6.7,15,15,15s15-6.7,15-15S23.3,0,15,0z
			 M15,28C7.8,28,2,22.2,2,15C2,7.8,7.8,2,15,2c7.2,0,13,5.8,13,13C28,22.2,22.2,28,15,28z M22,11.5C22,11.5,22,11.5,22,11.5
			C22,11.5,22,11.5,22,11.5z M18.4,11.5c0,0-0.4,1.3-1,2.3c-0.4,0.9-1,1.5-1,1.5h-0.7v-3.9c0,0-0.1-0.5-0.7-0.5S12,11,12,11
			c-0.1,0-0.1,0.5,0,0.5c0.1,0,1-0.2,1,2.3c0,1.1-0.2,1.5-0.2,1.5s-0.3,0-0.5,0c-0.5,0-2.1-3.7-2.4-3.9c-0.1-0.1-0.7,0-1.4,0
			c-0.6,0-1.4-0.1-1.4,0.3c0,0,3.5,8.2,6.2,8.2h2.4c0,0,0.1-2,0.7-2.1c0.7-0.1,2.1,2.1,2.1,2.1h3.1c0,0,0.8-0.5,0-1.3
			c-0.8-0.8-2.1-2.2-2.1-2.6c0-0.4,2.5-3.8,2.6-4.4c0-0.1,0-0.2,0-0.3C21.7,11.6,18.4,11.5,18.4,11.5z"/>
	</g>
</g>
</svg>
