<?xml version="1.0" encoding="utf-8"?>
<!-- Generator: Adobe Illustrator 18.1.0, SVG Export Plug-In . SVG Version: 6.00 Build 0)  -->
<svg version="1.1" id="Layer_1" xmlns="http://www.w3.org/2000/svg" xmlns:xlink="http://www.w3.org/1999/xlink" x="0px" y="0px"
	 viewBox="0 0 20 19" enable-background="new 0 0 20 19" xml:space="preserve">
<path fill="#f64c4c" d="M20,9.4c0-0.5-0.2-0.9-0.4-1.2c-0.2-0.3-0.6-0.6-1.3-0.6h-5.7c1.3-3.6,0.6-6-0.6-7c-0.6-0.6-1.3-0.7-1.8-0.5
	C9.6,0.4,9.4,0.9,9.5,1.7c0.2,2.6-2.1,5.1-3.3,6.3C6.1,7.8,6.2,8,6,8H0v10h6v-0.7c4.1,1.3,8.7,1.7,9.8,1.7c0.1,0,0.2,0,0.2,0
	c1.3,0,1.9-0.8,1.9-1.6c0-0.3-0.1-0.6-0.3-0.9c0.8-0.2,1.3-1,1.3-1.7c0-0.4-0.1-0.7-0.3-1c0.8-0.3,1.2-1,1.2-1.7
	c0-0.5-0.2-0.9-0.5-1.3C19.8,10.5,20,10,20,9.4z M5,17H1V9h4V17z M18.2,10.3h-0.1h-1.6c-0.2,0-0.4,0.2-0.4,0.4
	c0,0.2,0.2,0.4,0.4,0.4h1.6c0.6,0,0.9,0.5,0.9,0.9c0,0.3-0.2,0.9-0.9,0.9h-0.9h-1.2c-0.2,0-0.4,0.2-0.4,0.4c0,0.2,0.2,0.4,0.4,0.4
	h1.2c0.7,0,0.9,0.5,0.9,0.9c0,0.3-0.2,0.9-0.9,0.9h-1h-0.6c-0.2,0-0.4,0.2-0.4,0.4s0.2,0.4,0.4,0.4h0.6c0.5,0,0.9,0.4,0.9,0.8
	c0,0.1,0,0.3-0.2,0.4c-0.2,0.2-0.5,0.2-0.8,0.2c-0.1,0-5.6-0.4-10-1.9V9c0,0,1,0,1,0s3.6-4.1,3.3-7.4c0-0.4,0-0.6,0.2-0.7
	c0.2-0.1,0.5,0,0.9,0.3c0.9,0.9,1.5,3.2,0.1,6.7c-0.1,0.1,0,0.3,0,0.4c0.1,0.1,0.2,0.2,0.4,0.2h6.3c0.3,0,0.5,0.1,0.7,0.3
	C19,9,19.1,9.2,19.1,9.4C19.1,9.8,18.9,10.3,18.2,10.3z"/>
</svg>
